<?xml version="1.0" encoding="utf-8"?>
<!-- Generator: Adobe Illustrator 23.0.4, SVG Export Plug-In . SVG Version: 6.00 Build 0)  -->
<svg version="1.1" id="Layer_1" xmlns="http://www.w3.org/2000/svg" xmlns:xlink="http://www.w3.org/1999/xlink" x="0px" y="0px"
	 viewBox="0 0 300 64.6" style="enable-background:new 0 0 300 64.6;" xml:space="preserve">
<style type="text/css">
	.st0{fill:#FFFFFF;}
</style>
<g id="Artwork_38_">
	<g>
		<path class="st0" d="M157.4,15.1c3.1,2.6,5.1,6,5.9,10.5h-11.6c-0.3-1.5-1-2.7-2.1-3.6c-1-0.8-2.4-1.2-4-1.2
			c-1.9,0-3.5,0.8-4.7,2.3c-1.2,1.5-1.9,3.7-1.9,6.7c0,2.9,0.6,5.1,1.9,6.7c1.2,1.5,2.8,2.3,4.7,2.3c1.6,0,3-0.4,4-1.3
			c1-0.8,1.8-2.1,2.1-3.6h11.6c-0.8,4.4-2.8,8-5.9,10.5c-3.1,2.6-7,3.8-11.6,3.8c-3.5,0-6.6-0.8-9.4-2.2c-2.7-1.5-4.9-3.6-6.4-6.4
			s-2.3-6-2.3-9.8s0.8-7,2.3-9.8c1.5-2.8,3.7-4.9,6.4-6.4c2.7-1.5,5.8-2.2,9.4-2.2C150.4,11.3,154.3,12.5,157.4,15.1z"/>
		<path class="st0" d="M178.4,0.1v47.4h-11V0.1H178.4z"/>
		<path class="st0" d="M193.3,11.7l8.6,21.9l8-21.9H222l-22.3,52.8h-12.1l8.4-18.4l-15-34.5H193.3z"/>
		<path class="st0" d="M243.5,13.1c1.9,1.2,3.4,2.9,4.3,5.1V0h11v47.4h-11V41c-0.9,2.1-2.4,3.8-4.3,5.1c-1.9,1.2-4.3,1.9-7.1,1.9
			c-3,0-5.6-0.8-7.9-2.2c-2.4-1.5-4.2-3.6-5.5-6.4c-1.3-2.8-2-6-2-9.8s0.7-7,2-9.8s3.2-4.9,5.5-6.4c2.4-1.5,5-2.2,7.9-2.2
			C239.2,11.3,241.5,11.9,243.5,13.1z M234.2,23.2c-1.5,1.5-2.1,3.7-2.1,6.4c0,2.7,0.7,4.9,2.1,6.4c1.5,1.5,3.3,2.3,5.7,2.3
			c2.3,0,4.2-0.8,5.7-2.4c1.5-1.6,2.2-3.7,2.2-6.4c0-2.7-0.8-4.9-2.2-6.4c-1.5-1.6-3.4-2.4-5.7-2.4
			C237.6,20.9,235.7,21.6,234.2,23.2z"/>
		<path class="st0" d="M298.7,31.6h-24.8c0.1,2.7,0.8,4.6,2.1,5.8c1.2,1.2,2.8,1.7,4.7,1.7c1.6,0,3-0.4,4-1.2c1-0.8,1.8-1.9,2.1-3.1
			h11.6c-0.5,2.5-1.5,4.8-3.1,6.8c-1.6,2-3.6,3.5-6,4.7c-2.4,1.1-5.1,1.7-8.1,1.7c-3.5,0-6.6-0.8-9.4-2.2c-2.7-1.5-4.9-3.6-6.4-6.4
			s-2.3-6-2.3-9.8s0.8-7,2.3-9.8c1.5-2.8,3.7-4.9,6.4-6.4c2.7-1.5,5.8-2.2,9.4-2.2s6.7,0.7,9.4,2.1s4.8,3.5,6.2,6.1
			c1.5,2.6,2.2,5.7,2.2,9.1C299,29.5,298.9,30.5,298.7,31.6z M286,21.7c-1.3-1.2-2.9-1.7-4.9-1.7c-2,0-3.7,0.6-5,1.8s-2.1,3-2.2,5.3
			h13.9C288,24.6,287.4,22.9,286,21.7z"/>
		<polygon class="st0" points="299,64.6 207.6,64.6 211,56.6 299,56.6 		"/>
		<g>
			<path class="st0" d="M288,1V0h4.5v1h-1.7v4.5h-1.2V1H288z"/>
			<path class="st0" d="M294.7,0.1l1.3,3.8l0,0l1.2-3.8h1.7v5.5h-1.1V1.7l0,0l-1.3,3.9h-0.9l-1.3-3.9l0,0v3.9h-1.1V0.1H294.7z"/>
		</g>
		<path class="st0" d="M38.8,36.6c-1.9,3.5-4.6,6.1-8.2,8c-3.5,1.9-7.8,2.9-12.6,2.9H0.9V2.2H18c4.9,0,9.1,1,12.6,2.8
			c3.5,1.9,6.2,4.5,8.2,8c1.9,3.4,2.8,7.3,2.8,11.8C41.6,29.2,40.7,33.1,38.8,36.6z M27,34.3c2.4-2.3,3.5-5.5,3.5-9.6
			s-1.2-7.3-3.5-9.6s-5.7-3.4-10-3.4h-5.2v25.9H17C21.3,37.7,24.6,36.5,27,34.3z"/>
		<path class="st0" d="M82.2,11.7v35.8h-11V41c-1,2.1-2.6,3.7-4.6,5c-2,1.2-4.4,1.9-7.1,1.9c-4.1,0-7.3-1.4-9.8-4.1
			c-2.4-2.7-3.6-6.5-3.6-11.3V11.7H57v19.4c0,2.4,0.6,4.3,1.9,5.7c1.2,1.3,3,2,5.1,2c2.2,0,4-0.7,5.3-2.1c1.3-1.4,1.9-3.4,1.9-6v-19
			L82.2,11.7L82.2,11.7z"/>
		<path class="st0" d="M120,15.5c2.4,2.7,3.6,6.5,3.6,11.3v20.8h-11V28.1c0-2.4-0.6-4.3-1.9-5.6s-2.9-2-5.1-2c-2.2,0-4,0.7-5.3,2.1
			c-1.3,1.4-1.9,3.4-1.9,6v19h-11V11.9h11v6.5c1-2.1,2.6-3.8,4.6-5.1c2-1.2,4.4-1.9,7.1-1.9C114.4,11.4,117.6,12.7,120,15.5z"/>
		<polygon class="st0" points="123.7,56.6 0.9,56.6 0.9,64.6 123.7,64.6 179.7,64.6 183.3,56.6 		"/>
	</g>
</g>
</svg>
