<?xml version="1.0" encoding="UTF-8"?>
<svg id="Layer_1" data-name="Layer 1" xmlns="http://www.w3.org/2000/svg" version="1.1" viewBox="0 0 50 50" width="50" height="50" style="enable-background:new 0 0 50 50;" xml:space="preserve">
  <!-- Generator: Adobe Illustrator 29.0.0, SVG Export Plug-In . SVG Version: 2.1.0 Build 186)  -->
  <defs>
    <style>
      .st0, .st1, .st2 {
        fill: none;
        stroke: #000;
        stroke-linecap: round;
      }

      .st0, .st2 {
        stroke-miterlimit: 10;
      }

      .st1 {
        stroke-linejoin: round;
      }

      .st2 {
        stroke-dasharray: 2.7413604 2.7413604;
      }
    </style>
  </defs>
  <path class="st0" d="M35.9795862,29.7853742c-1.6177754,3.5109557-4.2148047,3.5109557-4.9098505,3.5109557-.9267275,0-5.2347582,0-6.094495-8.3222615-.8597368-8.3222615-5.3768889-8.3000043-6.0781963-8.300005-.5259804-.0000005-3.1983728-.0125195-4.8643972,3.4921734"/>
  <g>
    <line class="st0" x1="11.3690383" y1="25.1080237" x2="12.6190383" y2="25.1080237"/>
    <line class="st2" x1="15.3604018" y1="25.1080237" x2="35.9205825" y2="25.1080237"/>
    <line class="st0" x1="37.2912795" y1="25.1080237" x2="38.5412795" y2="25.1080237"/>
  </g>
  <path class="st1" d="M41.2583647,39.2375862c0,1.1929869-.9786137,2.1737453-2.1737453,2.1737453H10.8254913c-1.1951832,0-2.1738183-.9807584-2.1738183-2.1737453V10.9784581c0-1.197357.9786352-2.1738183,2.1738183-2.1738183h28.2591282c1.1951316,0,2.1737453.9764613,2.1737453,2.1738183v28.2591282Z"/>
  <path class="st1" d="M49.5,35.8344472h-5.4344486"/>
  <path class="st1" d="M49.5,28.6114824h-5.4344486"/>
  <path class="st1" d="M49.5,21.3885176h-5.4344486"/>
  <path class="st1" d="M49.5,14.1655528h-5.4344486"/>
  <path class="st1" d="M5.9344486,35.8344472H.5"/>
  <path class="st1" d="M5.9344486,28.6114824H.5"/>
  <path class="st1" d="M5.9344486,21.3885176H.5"/>
  <path class="st1" d="M5.9344486,14.1655528H.5"/>
  <path class="st1" d="M38.5412776,33.7537053c0,2.7162017-2.2241169,4.940438-4.940438,4.940438h-17.2913649c-2.7162039,0-4.9404402-2.2242363-4.9404402-4.940438v-17.2913649c0-2.7163211,2.2242363-4.9404402,4.9404402-4.9404402h17.2913649c2.7163211,0,4.940438,2.2241191,4.940438,4.9404402v17.2913649Z"/>
  <path class="st1" d="M35.8344472.5v5.4344486"/>
  <path class="st1" d="M28.6114824.5v5.4344486"/>
  <path class="st1" d="M21.3885176.5v5.4344486"/>
  <path class="st1" d="M14.1655528.5v5.4344486"/>
  <path class="st1" d="M35.8344472,44.0655514v5.4344486"/>
  <path class="st1" d="M28.6114824,44.0655514v5.4344486"/>
  <path class="st1" d="M21.3885176,44.0655514v5.4344486"/>
  <path class="st1" d="M14.1655528,44.0655514v5.4344486"/>
</svg>