<?xml version="1.0" encoding="utf-8"?>
<!-- Generator: Adobe Illustrator 26.0.2, SVG Export Plug-In . SVG Version: 6.00 Build 0)  -->
<svg version="1.1" id="Layer_1" xmlns="http://www.w3.org/2000/svg" xmlns:xlink="http://www.w3.org/1999/xlink" x="0px" y="0px"
	 viewBox="0 0 120 30" style="enable-background:new 0 0 120 30;" xml:space="preserve">
<style type="text/css">
	.st0{fill-rule:evenodd;clip-rule:evenodd;fill:#614F45;}
</style>
<g id="Symbols">
	<g id="Nav_x2C_-Resi-DT" transform="translate(-93.000000, -20.000000)">
		<path id="ketra-logo-2019-white" class="st0" d="M143.2,42.5l-8.4-7.2v7.2h-1.7v-15h1.7v6.4l8.1-6.4l2.4,0l-9,7.1l9.3,8H143.2z
			 M161.1,40.9v1.5h-10.7v-15h10.6V29H152v4.7h8.4v1.5H152v5.7H161.1z M177.6,29.2h-5.4v13.3h-1.7V29.2h-5.4v-1.7h12.4V29.2z
			 M191.7,42.5l-7.6-6.5v6.5h-1.7v-15h7.1c2.7,0,4.5,1.7,4.5,4.2c0,2.5-1.7,4.2-4.9,4.2h-2.9l8,6.6H191.7z M184.1,34.4h4.8
			c2.3,0,3.4-1.1,3.4-2.7c0-1.9-1.1-2.7-3.1-2.7h-5.1V34.4z M208.7,38.1h-6.8l-1.8,4.3l-1.8,0l6.1-15h1.9l6.1,15h-1.8L208.7,38.1z
			 M208.1,36.7l-2.9-7.3l-2.8,7.3H208.1z M121.7,28.1c0.4,0.7,0.7,1.4,0.9,2.2l-11.6,3.5L121.7,28.1z M113.8,29.5l4.3-6
			c0.6,0.5,1.2,1.1,1.7,1.7L113.8,29.5z M108.4,27.2l-1.2-7.2c0.4,0,0.8-0.1,1.2-0.1c0.4,0,0.8,0,1.1,0l-1.2,7.1L108.4,27.2z
			 M123.4,36.2l-7.3-1.2l7.3-1.2c0,0.4,0.1,0.8,0.1,1.2C123.4,35.4,123.4,35.8,123.4,36.2z M122.7,39.6c-0.2,0.8-0.6,1.5-0.9,2.2
			l-10.7-5.7L122.7,39.6z M113,20.7c0.8,0.2,1.5,0.5,2.2,0.9l-5.7,10.6L113,20.7z M113,49.3l-3.5-11.6l5.7,10.7
			C114.5,48.7,113.8,49,113,49.3z M108.4,42.7l1.2,7.3c-0.4,0-0.8,0-1.2,0c-0.4,0-0.8,0-1.2-0.1L108.4,42.7z M102.9,29.5L97,25.3
			c0.5-0.6,1.1-1.2,1.7-1.7L102.9,29.5z M93.5,33.8l7.2,1.2l-7.2,1.2c0-0.4,0-0.8,0-1.1C93.4,34.6,93.4,34.2,93.5,33.8z M113.8,40.4
			l6,4.3c-0.5,0.6-1.1,1.2-1.7,1.7L113.8,40.4z M103.1,40.3l-4.3,6.2c-0.6-0.5-1.2-1.1-1.8-1.8L103.1,40.3z M103.8,20.7l3.5,11.5
			l-5.7-10.6C102.3,21.3,103,21,103.8,20.7z M105.6,36.1L95,41.8c-0.4-0.7-0.7-1.4-0.9-2.2L105.6,36.1z M95.1,28.2l10.6,5.7
			l-11.5-3.5C94.4,29.6,94.7,28.9,95.1,28.2z M103.7,49.3c-0.7-0.2-1.4-0.5-2.1-0.9l5.6-10.6L103.7,49.3z"/>
	</g>
</g>
</svg>
