<?xml version="1.0" encoding="utf-8"?>
<!-- Generator: Adobe Illustrator 26.0.2, SVG Export Plug-In . SVG Version: 6.00 Build 0)  -->
<svg version="1.1" id="Layer_1" xmlns="http://www.w3.org/2000/svg" xmlns:xlink="http://www.w3.org/1999/xlink" x="0px" y="0px"
	 viewBox="0 0 492.9 77.5" style="enable-background:new 0 0 492.9 77.5;" xml:space="preserve">
<style type="text/css">
	.st0{fill:#614F45;}
</style>
<path class="st0" d="M148.3,34.7h21v-8h-21V14.5h25.6v-8h-37.3v49.5h38.5v-8h-26.8V34.7z M228.2,30.2c2.2-2.4,3.3-5.5,3.3-9.3
	c0-4.6-1.7-8.2-5-10.7c-3.6-2.8-7.7-3.7-16.6-3.7h-20.4v49.5h11.7V36.1h5.8l14,19.8h12.8l-15.2-21.2
	C223.8,33.6,225.9,32.6,228.2,30.2z M208.8,28.1h-7.6V14.5h7.6c7.6,0,10.7,1.9,10.7,6.6C219.5,26,216.3,28.1,208.8,28.1z
	 M246.7,55.9h11.7V6.5h-11.7V55.9z M323.3,13.7c-6-5.2-13.3-7.3-24.9-7.3h-22.7v49.5h22.7c11,0,19.1-2.4,24.8-7.3
	c5.4-4.6,8.4-11,8.4-17.6C331.5,24.6,328.6,18.3,323.3,13.7z M297.2,47.6h-9.3V14.8h9.3c6.7,0,11.4,1,14.7,2.9
	c4.4,2.6,7.1,7.8,7.1,13.4C318.9,41.7,311.1,47.6,297.2,47.6z M344.3,55.9H356V6.5h-11.7V55.9z M388.7,6.5l-22.2,49.5h12.2l5-12.2
	h20.5l4.8,12.2h12.2L399.2,6.5H388.7z M387,35.7l7.1-17.9l7.1,17.9H387z M79.2,36.9l0-30.4H67.4L7.6,71h14.1l45.7-50.4v35.3h8.5
	l32.2-35.2v35.2h11.7V6.5h-12.5L79.2,36.9z M474.3,6.5v36.2c0,0-1.4-2.7-2.3-3.7L446.3,6.5h-13.5v49.4H444V20.2
	c0.3,0.8,1.1,2,2.9,4.2l26.3,32h12.2V6.5H474.3z"/>
</svg>
