<?xml version="1.0" encoding="utf-8"?>
<!-- Generator: Adobe Illustrator 26.0.2, SVG Export Plug-In . SVG Version: 6.00 Build 0)  -->
<svg version="1.1" id="svg2" xmlns:svg="http://www.w3.org/2000/svg"
	 xmlns="http://www.w3.org/2000/svg" xmlns:xlink="http://www.w3.org/1999/xlink" x="0px" y="0px" viewBox="0 0 826.1 97.4"
	 style="enable-background:new 0 0 826.1 97.4;" xml:space="preserve">
<style type="text/css">
	.st0{fill:#614F45;}
</style>
<path id="path5051" class="st0" d="M141.7,29.7h7.5l6.3,49.8h0.2l13-49.8h8l13,49.8h0.2l6.3-49.8h7.5l-10.1,58.1h-7.8l-13.1-48.9
	h-0.2l-13,48.9h-7.8L141.7,29.7"/>
<path id="path5055" class="st0" d="M467.4,7.4h8.2l9.7,70.4h0.2l18.4-70.4h9.6L532,77.8h0.2l10.4-70.4h7.7L536,87.8h-8.1l-19.2-72
	h-0.2l-19.1,72h-8.3L467.4,7.4"/>
<path id="path5059" class="st0" d="M16.2,52.1h18c12.4,0,19.2,5.8,19.2,15.1c0,10.7-6.7,14.9-18,14.9H16.2V52.1z M16.2,13.9H35
	c12.5,0,18.6,4.9,18.6,15.7c0,10.8-5.5,16.4-18,16.4H16.2V13.9z M9,88.2h28.8c15.5,0,22.2-8.5,22.2-20.5c0-8.3-3.9-15.5-13.6-17.9
	v-0.2c9.9-1.9,14.4-9.6,14.4-20.1c0-14.1-9.1-21.8-24.3-21.8H9V88.2"/>
<path id="path5061" class="st0" d="M566.1,30h7.1v58.1h-7.1V30z"/>
<path id="path5063" class="st0" d="M681.5,30h7.1v58.1h-7.1V30z"/>
<path id="path5067" class="st0" d="M710.6,30h7.1v10h0.2c2.6-7,10.4-11.7,18.6-11.7c16.3,0,20.3,8.6,20.3,22.4v37.4h-7.1V51.9
	c0-10-2.3-17.6-13.8-17.6c-11.3,0-18,8.6-18.2,19.9v33.9h-7.1V30"/>
<path id="path5071" class="st0" d="M811.2,47.2c3-8.2-5.8-12.7-13.9-12.7c-6.3,0-13.8,2.5-13.8,10c0,6.3,7.2,8.6,12.1,9.8l9.5,2.1
	c8.1,1.2,16.6,6,16.6,16.1c0,12.6-12.5,17.5-23.3,17.5c-13.5,0-25.5-7.1-22.6-20.5h7.1c-3.2,8.4,6.4,14.5,15.9,14.5
	c6.6,0,15.9-2.9,15.9-11c0-6.8-6.3-9-12.7-10.6l-9.1-2c-9.2-2.5-16.2-5.6-16.2-15.6c0-11.8,11.6-16.3,21.9-16.3
	c11.6,0,23.4,7.3,20,18.7H811.2"/>
<path id="path5075" class="st0" d="M358.3,47.1c3-8.2-5.8-12.7-13.9-12.7c-6.3,0-13.7,2.5-13.7,10c0,6.3,7.2,8.6,12.1,9.8l9.5,2.1
	c8.1,1.2,16.6,6,16.6,16.1c0,12.6-12.5,17.5-23.3,17.5c-13.5,0-25.5-7.1-22.6-20.5h7.1c-3.2,8.4,6.4,14.5,15.9,14.5
	c6.6,0,15.9-2.9,15.9-11c0-6.8-6.3-9-12.7-10.6l-9.1-2c-9.2-2.5-16.2-5.6-16.2-15.5c0-11.8,11.6-16.3,21.9-16.3
	c11.6,0,23.4,7.3,20,18.7H358.3"/>
<path id="path5079" class="st0" d="M102.5,34.6c13.5,0,19.2,12.3,19.2,24.5c0,12.3-5.7,24.5-19.2,24.5S83.3,71.4,83.3,59.1
	C83.3,46.8,89,34.6,102.5,34.6z M102.5,28.7c-17.6,0-26.2,13.9-26.2,30.4c0,16.5,8.6,30.4,26.2,30.4c17.6,0,26.2-13.9,26.2-30.4
	C128.7,42.6,120.1,28.7,102.5,28.7"/>
<path id="path5083" class="st0" d="M624.6,7.7h7.1V57l27-26.9h9.2l-21.6,21.5l23,36.6h-8.2l-19.7-31.9l-9.7,9.8v22.1h-7.1V7.7"/>
<path id="path5087" class="st0" d="M312.6,38.8c-2-1.3-4.2-2.2-7.6-2.2c-7,0-10.9,6.5-10.9,17.6v34h-7.2v-58h7.2v7.2
	c2.3-4.6,7.1-8.1,12.5-8.1c3.7,0,6.1,0.9,7.9,1.7L312.6,38.8"/>
<path id="path5089" class="st0" d="M595.4,7.8h7.1v80.4h-7.1V7.8z"/>
<path id="path5093" class="st0" d="M411,51.6L411,51.6c-3.7,2.3-15.7,7.8-15.7,20h0c0,0,0,0.1,0,0.1c0,6,4.3,17.4,20,17.4
	c13.5,0,18.7-9.8,18.7-9.8l7.4,8.7h8.5c-2.1-2.4-12.2-14.2-12.2-14.2s4.5-8.3,4.5-15.8h-6.2c0,4.7-2.5,11-2.5,11l-13.2-16.1
	c0,0,12.8-6,12.8-17c0-7.7-6.6-12.9-15.4-12.9c-8.4,0-14.3,5.3-14.3,13C403.6,42.6,407.5,46.8,411,51.6z M426.7,35.7
	c0,7-6.2,10.4-10.1,12.8c0,0-6.4-6.9-6.4-12.8c0-5.2,4.3-7.5,8.3-7.5C422.2,28.2,426.7,30.4,426.7,35.7z M415.7,83.1
	c-6,0-13.3-4.2-13.3-11.9c0-7.5,5.6-11.5,12.2-15.3c0,0,0.1,0.1,0.1,0.1l15.7,18.8C430.4,74.8,426.1,83.1,415.7,83.1"/>
<path id="path5097" class="st0" d="M260.1,69.5c-2.3,8.4-6.9,14.1-16.9,14.1c-13.5,0-17.9-12.4-18-22.6h42.3
	c0.6-16.2-5.8-32.3-24.3-32.3c-18.3,0-25,15.3-25,30.4c0,16.4,6.7,30.4,25,30.4c13.8,0,20.4-6.9,23.6-18.7L260.1,69.5z M243.2,34.6
	c11.4,0,17,9.9,17.3,20.5h-35.3C226.4,44.6,231.7,34.6,243.2,34.6"/>
<path id="path5099" class="st0" d="M566.1,7.8h7.1v11.4h-7.1V7.8z"/>
<path id="path5101" class="st0" d="M681.5,7.8h7.1v11.4h-7.1V7.8z"/>
</svg>
