<?xml version="1.0" encoding="utf-8"?>
<!-- Generator: Adobe Illustrator 26.0.2, SVG Export Plug-In . SVG Version: 6.00 Build 0)  -->
<svg version="1.1" id="Layer_1" xmlns="http://www.w3.org/2000/svg" xmlns:xlink="http://www.w3.org/1999/xlink" x="0px" y="0px"
	 viewBox="0 0 189 25.2" style="enable-background:new 0 0 189 25.2;" xml:space="preserve">
<style type="text/css">
	.st0{fill-rule:evenodd;clip-rule:evenodd;fill:#614F45;}
</style>
<path class="st0" d="M58.4,12.1h6.3c0.7-4.1-2.1-6.4-8.1-6.4c-6.4,0-10.1,2.6-11.2,7.5c-1,4.9,1.6,7.5,8,7.5c5.7,0,9.3-2.1,10.8-6
	h-6.4c-0.7,1.5-1.9,2.3-3.6,2.3c-2.4,0-3.4-1.3-2.8-3.8c0.5-2.5,2.1-3.9,4.5-3.9C57.7,9.4,58.6,10.4,58.4,12.1L58.4,12.1L58.4,12.1z
	"/>
<path class="st0" d="M71.3,12.3l0.5-2.5h3.1c1.6,0,2.4,0.2,2.2,1.2c-0.2,1-1,1.3-2.6,1.3H71.3L71.3,12.3L71.3,12.3L71.3,12.3z
	 M77.8,6.1H67l-3,14.3h5.6l0.9-4.3h3.3c1.4,0,1.8,0.4,1.7,1.4c-0.1,1.2-0.5,2.2-0.2,2.9h6.1l0-0.2c-0.6-0.3-0.4-1.5,0-3.6
	c0.3-1.6,0.3-2.4-1.1-3c1.6-0.6,2.8-1.9,3.1-3.6c0.3-1.4,0-2.5-1-3.1C81.6,6.3,80.1,6.1,77.8,6.1L77.8,6.1L77.8,6.1z"/>
<polygon class="st0" points="82.2,20.4 97.8,20.4 98.6,16.7 88.5,16.7 88.9,14.9 96.7,14.9 97.4,11.3 89.7,11.3 90,9.6 99.6,9.6 
	100.3,6.1 85.2,6.1 82.2,20.4 82.2,20.4 "/>
<path class="st0" d="M98.5,16.1c-0.6,3,1.9,4.8,7.3,4.8c6.6,0,10-1.5,10.8-5.1c0.5-2.4-0.8-3.7-3.8-4.2l-4.9-0.7
	c-1.4-0.2-2-0.4-1.9-1c0.1-0.6,0.9-0.9,2.2-0.9c1.7,0,2.5,0.5,2.5,1.4h6.4c0.4-3.2-2.2-4.5-8-4.5c-5.6,0-8.5,1.3-9.2,4.6
	c-0.5,2.4,0.9,3.8,4.3,4.2l4,0.5c1.3,0.2,1.9,0.5,1.7,1.1c-0.1,0.7-1,1-2.5,1c-1.5,0-2.3-0.5-2.2-1.2H98.5L98.5,16.1L98.5,16.1z"/>
<polygon class="st0" points="119.3,20.4 124.9,20.4 127.1,9.8 132.3,9.8 133.1,6.1 117.2,6.1 116.4,9.8 121.6,9.8 119.3,20.4 
	119.3,20.4 "/>
<path class="st0" d="M137.9,12.3l0.5-2.5h3.1c1.6,0,2.4,0.2,2.2,1.2c-0.2,1-1,1.3-2.6,1.3H137.9L137.9,12.3L137.9,12.3L137.9,12.3z
	 M144.4,6.1h-10.9l-3,14.3h5.6l0.9-4.3h3.3c1.4,0,1.8,0.4,1.7,1.4c-0.1,1.2-0.5,2.2-0.2,2.9h6.1l0-0.2c-0.6-0.3-0.4-1.5,0-3.6
	c0.3-1.6,0.3-2.4-1.1-3c1.6-0.6,2.8-1.9,3.1-3.6c0.3-1.4,0-2.5-1-3.1C148.2,6.3,146.7,6.1,144.4,6.1L144.4,6.1L144.4,6.1z"/>
<path class="st0" d="M149.1,13.3c-1,4.9,1.6,7.5,8,7.5c6.4,0,10.1-2.6,11.2-7.5c1-4.9-1.6-7.5-8-7.5C153.9,5.8,150.1,8.3,149.1,13.3
	L149.1,13.3L149.1,13.3L149.1,13.3z M154.8,13.3c0.5-2.5,2.1-3.9,4.5-3.9c2.4,0,3.4,1.4,2.8,3.9c-0.5,2.5-2.1,3.8-4.5,3.8
	C155.3,17.1,154.3,15.8,154.8,13.3L154.8,13.3L154.8,13.3z"/>
<polygon class="st0" points="167.3,20.4 172.5,20.4 174.3,12.1 178.5,20.4 184.7,20.4 187.7,6.1 182.4,6.1 180.6,14.4 176.9,6.1 
	170.3,6.1 167.3,20.4 167.3,20.4 "/>
<polygon class="st0" points="39.2,22.3 39.2,21 39.7,21 39.7,20.9 38.6,20.9 38.6,21 39,21 39,22.3 39.2,22.3 39.2,22.3 "/>
<polygon class="st0" points="41.2,22.3 41.3,22.3 41.3,20.9 41,20.9 40.6,22 40.2,20.9 39.9,20.9 39.9,22.3 40.1,22.3 40.1,21 
	40.5,22.3 40.7,22.3 41.2,21 41.2,22.3 41.2,22.3 "/>
<path class="st0" d="M2.7,17.6c0.3,0.3,0.6,0.5,1,0.8c0.2,0.1,0.4,0.2,0.6,0.3c0.2,0.1,0.3,0.1,0.4,0.2C4.9,19,5,18.9,5,18.8
	c0-0.5,0-0.9,0-1.3v0c0.2-2.5,1.2-4.2,3-5.7c1.9-1.6,4.6-3,9.4-3.5c6.2-0.7,11.1,2.6,8.4,5c-0.2,0.1,0,0.4,0.2,0.3
	c2.5-1.8,1.4-3.2,0.2-4.3C23,6.4,14.3,6.5,8,8.3c-5.7,1.7-9.9,5-5.6,9C2.5,17.4,2.6,17.5,2.7,17.6L2.7,17.6z M7.2,17.5
	c-0.6-4,3.7-8.5,10.5-8.5c2.4,0,5.1,0.2,6.8,2.2c0.1,0.2-0.1,0.4-0.2,0.2c-3-2.7-11.1-1.7-12.9,1.2c-1.2,1.9-0.8,3.4,0.2,4.8
	c0.3,0.3,0.6,0.7,0.9,1c1.8,1.8,4.7,3.3,10.3,4.9c0.2,0.1,0.2,0.3,0,0.3c-0.3,0-0.7,0.1-1.3,0.2C12,24.3,7.7,21.1,7.2,17.5L7.2,17.5
	C7.2,17.5,7.2,17.5,7.2,17.5L7.2,17.5z M13.4,17.5c-1.6-1.6-2-3.4-0.4-4.9c1.2-1.1,2.9-2.2,7-2c0.2,0,0.2,0.3,0,0.3
	c-6.2,0-8.1,4.1-4.5,6.2c0.2,0.1,0.4,0.2,0.6,0.3h0l0,0c3.1,1.6,6.5,2.1,10,2.1c3.9,0.1,7.8-0.4,13.1-2.1l0,0c0.1,0,0.1-0.1,0.2-0.1
	c0.1,0,0.2,0,0.2,0.1c0,0,0,0.1,0,0.1c0,0.1-0.1,0.2-0.1,0.3c-0.1,0.1-0.1,0.3-0.3,0.4c-4.2,5-12.3,5-18.6,3.1
	C17.7,20.5,15,19.1,13.4,17.5L13.4,17.5L13.4,17.5L13.4,17.5z M17.8,17.3c-0.3-0.2-0.6-0.4-0.9-0.6c-1.2-1.1-2.3-2.5,0.2-4.3
	c0.2-0.1,0.4,0.1,0.2,0.3c-2,1.7,0.1,4,3.8,4.8c0.2,0,0.3,0.1,0.5,0.1c1.2,0.2,2.7,0.3,4.1,0.1c0.6-0.1,1.2-0.1,1.7-0.2
	c3.7-0.6,6-1.9,7.7-3.3c2-1.7,3.1-3.7,3-7C38,7,38.2,6.9,38.3,7c0.1,0.1,0.3,0.1,0.4,0.2c0.2,0.1,0.4,0.2,0.6,0.3
	c6.1,4.3,2.4,7.9-3.3,9.8c-0.3,0.1-0.6,0.2-1,0.3c-5.6,1.6-13.1,1.9-16.9,0C18,17.5,17.9,17.4,17.8,17.3L17.8,17.3z M3.7,7.6
	c4.2-5,12.3-5,18.6-3.1c6.1,1.9,11,5.8,7.7,8.8c-1.2,1.1-2.9,2.2-7,2c-0.2,0-0.2-0.3,0-0.3c6.2,0,8.1-4.1,4.5-6.2
	c-3.2-1.9-6.9-2.4-10.6-2.5C12.9,6.3,9,6.8,3.5,8.5c-0.2,0-0.3-0.1-0.2-0.2c0-0.1,0.1-0.2,0.1-0.3C3.4,7.9,3.5,7.7,3.7,7.6L3.7,7.6
	L3.7,7.6z M25.1,17c-2.3,0-4.9-0.2-6.6-2.2c-0.1-0.2,0.1-0.4,0.2-0.2c3,2.7,11.1,1.7,12.9-1.2c1.5-2.3,0.6-4.2-1.2-5.8
	c-1.8-1.8-4.7-3.3-10.3-4.9c-0.2-0.1-0.2-0.3,0-0.3c0.3,0,0.7-0.1,1.3-0.2C41.7,1,38.2,16.7,25.6,17C25.4,17,25.2,17,25.1,17
	L25.1,17z"/>
</svg>
