<?xml version="1.0" encoding="utf-8"?>
<!-- Generator: Adobe Illustrator 26.0.2, SVG Export Plug-In . SVG Version: 6.00 Build 0)  -->
<svg version="1.1" id="Layer_1" xmlns="http://www.w3.org/2000/svg" xmlns:xlink="http://www.w3.org/1999/xlink" x="0px" y="0px"
	 viewBox="0 0 82 27" style="enable-background:new 0 0 82 27;" xml:space="preserve">
<style type="text/css">
	.st0{fill-rule:evenodd;clip-rule:evenodd;fill:#614F45;}
</style>
<g>
	<g>
		<g>
			<g transform="translate(-50 -35) translate(43 35) translate(7)">
				<g>
					<path id="_x31_rp1yzqfwa" class="st0" d="M11,0.7c7.8,0,8.1,5.9,8.1,6.2v0l7,1.6h0.1c0.8,0,2.3,0.3,2.3,1.1c0,0,0,1.1-0.8,3
						v0.8c0,3.6-3.3,6.5-10.3,6.5c-1.8,0-3.4,0.7-4.5,1.8c-1.2,1.1-1.9,2.7-1.9,4.5c-0.3,0-0.5-0.1-0.7-0.2l-9.5-5.6
						C0.4,20.2,0,19.7,0,19.2h0V7.9c0-0.5,0.3-1.1,0.7-1.3l9.5-5.6C10.4,0.8,10.7,0.7,11,0.7L11,0.7z M12,2.8v5.6
						c0,5.6-4.1,10.2-9.4,10.8l7,4.1c0.4-1.1,1.1-2.1,2-3c1.6-1.5,3.6-2.3,5.9-2.3c5.1,0,8.3-1.7,8.3-4.5v-1.3l0.2-0.4
						c0.2-0.5,0.3-0.9,0.4-1.2c0,0-0.1,0-0.1,0h-0.3l-0.2-0.1l-7-1.6L17,8.6l0-1.6C17.1,6.3,16.7,3.2,12,2.8z M51,7
						c3.8,0,6.4,2.9,6.4,6.4v0c0,3.5-2.7,6.5-6.4,6.5c-3.8,0-6.4-2.9-6.4-6.4v0C44.6,10,47.2,7,51,7z M41.1,7.2
						c0.6,0,1.1,0.5,1.1,1.1v7.3c0,1.5-0.4,2.6-1.2,3.3c-0.7,0.7-1.8,1.1-3,1.1c-1.5,0-2.6-0.6-3.3-1.4c-0.2-0.2-0.4-0.5-0.4-0.8
						c0-0.6,0.5-1.1,1-1.1c0.3,0,0.5,0.1,0.7,0.2c0.6,0.6,1.2,1,2,1c1.2,0,2-0.8,2-2.5V8.2C40,7.6,40.5,7.2,41.1,7.2z M63.8,7.1
						c1.5,0,2.8,0.4,3.9,1.2c0.2,0.1,0.5,0.4,0.5,0.9c0,0.6-0.5,1-1,1c-0.2,0-0.4-0.1-0.6-0.2C65.6,9.3,64.7,9,63.8,9
						c-1.3,0-2,0.7-2,1.5v0c0,1,0.6,1.4,2.9,2c2.6,0.6,3.9,1.6,3.9,3.7v0c0,2.3-1.8,3.7-4.4,3.7c-1.7,0-3.2-0.5-4.6-1.6
						c-0.2-0.2-0.4-0.5-0.4-0.8c0-0.6,0.5-1,1-1c0.3,0,0.5,0.1,0.6,0.2c1,0.8,2.1,1.3,3.4,1.3c1.3,0,2.2-0.6,2.2-1.6v0
						c0-0.9-0.5-1.4-2.8-1.9c-2.6-0.6-4.1-1.4-4.1-3.7v0C59.6,8.6,61.4,7.1,63.8,7.1z M80.3,7.2c0.6,0,1.1,0.5,1.1,1.1v10.5
						c0,0.6-0.5,1.1-1.1,1.1c-0.6,0-1.1-0.5-1.1-1.1v-4.3h-5.9v4.3c0,0.6-0.5,1.1-1.1,1.1c-0.6,0-1.1-0.5-1.1-1.1V8.2
						c0-0.6,0.5-1.1,1.1-1.1c0.6,0,1.1,0.5,1.1,1.1v4.2h5.9V8.2C79.2,7.6,79.7,7.2,80.3,7.2L80.3,7.2z M51,9.1c-2.4,0-4.1,2-4.1,4.4
						v0c0,2.4,1.7,4.4,4.2,4.4c2.4,0,4.1-2,4.1-4.4v0C55.2,11.1,53.4,9.1,51,9.1L51,9.1z M10,3.4L2,8.2v9c4.5-0.3,8-4.1,8-8.7V3.4z"
						/>
				</g>
			</g>
		</g>
	</g>
</g>
</svg>
