<?xml version="1.0" encoding="UTF-8"?>
<svg id="Layer_1" data-name="Layer 1" xmlns="http://www.w3.org/2000/svg" version="1.1" viewBox="0 0 50 50" width="50" height="50" style="enable-background:new 0 0 50 50;" xml:space="preserve">
  <!-- Generator: Adobe Illustrator 29.2.1, SVG Export Plug-In . SVG Version: 2.1.0 Build 116)  -->
  <defs>
    <style>
      .st0 {
        fill: none;
        stroke: #000;
        stroke-linecap: round;
        stroke-linejoin: round;
      }
    </style>
  </defs>
  <circle class="st0" cx="25" cy="20.5776065" r="5.3758781"/>
  <ellipse class="st0" cx="12.707373" cy="20.5776065" rx="4.3620776" ry="5.3758781"/>
  <ellipse class="st0" cx="18.4146705" cy="32.2931797" rx="5.2114981" ry="5.3758781"/>
  <path class="st0" d="M16.680186,27.3141589c1.2849298.8012025,2.190401,2.7286334,2.190401,4.9790208,0,2.3052812-.9501844,4.271658-2.2851008,5.0356301"/>
  <ellipse class="st0" cx="31.5853296" cy="32.2931797" rx="5.2114981" ry="5.3758781"/>
  <path class="st0" d="M33.3198141,27.3141589c-1.2849298.8012025-2.190401,2.7286334-2.190401,4.9790208,0,2.3052812.9501844,4.271658,2.2851008,5.0356301"/>
  <ellipse class="st0" cx="8.1912699" cy="32.2931797" rx="3.6386614" ry="5.3758781"/>
  <path class="st0" d="M.5000267,28.1466517c.3145924-.7679563.7180536-1.2293501,1.157985-1.2293501,1.0047886,0,1.8193307,2.4068626,1.8193307,5.3758781s-.8145421,5.3758781-1.8193307,5.3758781c-.4399438,0-.8434154-.4614199-1.1580117-1.2294153"/>
  <ellipse class="st0" cx="4.3122073" cy="20.5776065" rx="2.3998233" ry="5.3758781"/>
  <ellipse class="st0" cx="37.292627" cy="20.5776065" rx="4.3620776" ry="5.3758781"/>
  <ellipse class="st0" cx="41.8087301" cy="32.2931797" rx="3.6386614" ry="5.3758781"/>
  <path class="st0" d="M49.4999733,28.1466517c-.3145924-.7679563-.7180536-1.2293501-1.157985-1.2293501-1.0047886,0-1.8193307,2.4068626-1.8193307,5.3758781,0,2.9690155.8145421,5.3758781,1.8193307,5.3758781.4399438,0,.8434154-.4614199,1.1580117-1.2294153"/>
  <ellipse class="st0" cx="45.6877927" cy="20.5776065" rx="2.3998233" ry="5.3758781"/>
  <path class="st0" d="M49.4999567,36.4396426s0-20.7303886,0-22.0398058-.9978399-2.0688946-1.9949363-2.0688946-22.5050205,0-22.5050205,0H2.4949795c-.9970963,0-1.9949363.7594774-1.9949363,2.0688946v22.0398058"/>
</svg>