<?xml version="1.0" encoding="utf-8"?>
<!-- Generator: Adobe Illustrator 26.0.2, SVG Export Plug-In . SVG Version: 6.00 Build 0)  -->
<svg version="1.1" id="Layer_1" xmlns:serif="http://www.serif.com/"
	 xmlns="http://www.w3.org/2000/svg" xmlns:xlink="http://www.w3.org/1999/xlink" x="0px" y="0px" viewBox="0 0 100 30.7"
	 style="enable-background:new 0 0 100 30.7;" xml:space="preserve">
<style type="text/css">
	.st0{fill:#614F45;}
	.st1{fill-rule:evenodd;clip-rule:evenodd;fill:#614F45;}
</style>
<g id="g90952" transform="matrix(1,0,0,1,-1833.43,2381)">
	<path id="path90542" class="st0" d="M1862.2-2371.2c-1.3,0.1-2.7-0.7-3.8-2c-0.1-0.1-0.1-0.1-0.2-0.1c-0.1,0-0.2,0.1-0.2,0.2
		c-0.4,1.1-2.3,2.4-3.5,2.4c-0.1,0-0.2,0.1-0.2,0.2c0,0.1,0,0.2,0.2,0.3c0.7,0.2,1,1.1,1,1.9v5.1c0,0.9-0.3,1.4-1.1,1.9
		c-0.1,0.1-0.1,0.2-0.1,0.3c0,0.1,0.2,0.2,0.3,0.1c0.8-0.2,3.2,1.5,3.5,2.4c0,0.1,0.1,0.1,0.2,0.2c0.1,0,0.2,0,0.2-0.1
		c1.1-1.4,2.5-2.1,3.8-2c0.1,0,0.1,0,0.2-0.1c0,0,0.1-0.1,0.1-0.2v-1c0-0.1,0-0.1-0.1-0.2c0,0-0.1-0.1-0.2-0.1
		c-0.8,0-1.6,0.2-2.4,0.5c-0.2-0.4-0.8-1-1.3-1.2v-6.4c0.1,0,0.1-0.1,0.1-0.1c0.5-0.3,1-0.6,1.2-1.1c0.2,0.1,0.5,0.1,0.5,0.1
		c0.6,0.2,1.3,0.4,1.9,0.3c0.1,0,0.2-0.1,0.2-0.2v-0.9c0-0.1,0-0.1-0.1-0.2C1862.3-2371.2,1862.2-2371.2,1862.2-2371.2"/>
	<path id="path90546" class="st0" d="M1854.2-2355.4c-0.5-0.1-1.1-1.2-1.1-1.8v-17.4c0.6-0.2,1.7-0.9,1.9-1.3c0,0,0-0.1,0-0.1
		c0-0.1,0-0.1,0-0.1c0-0.1-0.1-0.1-0.2-0.1c-1.3,0.1-3.2-1.1-4-2.1c-0.1-0.1-0.1-0.1-0.2-0.1c-0.1,0-0.1,0-0.2,0.1l-0.3,0.5
		l-0.1,0.2c-0.4,0.6-0.9,0.9-1.6,1.2c0,0-0.5,0.2-0.6,0.3c-0.4-0.3-0.8-0.4-1.2-0.5c-0.7-0.2-1.4-0.4-2.7-1.8c0-0.1-0.1-0.1-0.2-0.1
		c-0.1,0-0.1,0-0.2,0.1c-1.1,1.5-2.5,2-4.2,2.6c0-0.2,0-0.4,0-0.4c0-0.1,0-0.1-0.1-0.1c-0.1-0.1-0.2-0.3-0.4-0.5
		c-0.3-0.6-0.8-1.5-2-1.6c-0.1,0-0.1,0-0.2,0.1l-2.8,2.3c-0.1,0-0.1,0.1-0.1,0.2c0,0,0,0.1,0,0.1c0,0.1,0.1,0.2,0.2,0.2
		c1.8,0,2,0.8,2,2.8v15.6c-0.1,0.2-0.2,0.3-0.2,0.5l0,0.2c0,0-0.2,0.4-0.2,0.4s-0.1,0.2-0.2,0.3c-0.1,0-0.5,0.4-0.5,0.4
		c-0.1,0-0.1,0.1-0.1,0.2v0c0,0.1,0,0.1,0.1,0.2l1.3,0.9c0,0,0.6,0.4,0.6,0.4c0,0,0.2,0.2,0.2,0.2c0.3,0.3,0.6,0.6,0.6,0.9
		c0,0.1,0.1,0.2,0.2,0.2c0.1,0,0.2-0.1,0.3-0.2c0.4-1.3,1.1-1.6,2.2-2.2l0.3-0.2c0.1,0,0.1-0.1,0.1-0.2c0-0.1-0.1-0.2-0.2-0.2
		c-0.5-0.1-1-1.2-1-1.8v-15.7c0-1.1,0.9-1.6,1.7-1.6c0.8,0,1.7,0.5,1.7,1.6v15.7c0,0.8-0.6,1.4-1.1,1.8c-0.1,0.1-0.1,0.1-0.1,0.2
		c0,0.1,0.1,0.2,0.2,0.2c1.3,0.4,1.6,1,2.3,2l0.2,0.4c0.1,0.1,0.2,0.1,0.3,0.1c0.1,0,0.2-0.1,0.2-0.2v-0.1c1-1.5,1.5-1.7,1.9-1.9
		c0.2-0.1,0.4-0.2,0.6-0.4c0,0,0.1-0.1,0.1-0.2c0,0,0,0,0-0.1c0-0.1-0.1-0.1-0.2-0.2c-0.5-0.1-0.9-1.1-0.9-1.6v-15.7
		c0-0.6,0.2-1,0.6-1.3c0.5-0.3,1.3-0.3,2,0c0.1,0.1,0.3,0.4,0.3,0.4c0.2,0.3,0.4,0.5,0.4,1v15.7c0,0.6-0.4,1.4-0.9,1.7
		c-0.1,0-0.2,0.1-0.2,0.2c0,0,0,0,0,0c0,0.1,0,0.1,0.1,0.2l1.1,0.7c0.7,0.4,1.1,0.6,1.5,1.8c0,0.1,0.1,0.2,0.2,0.2
		c0.1,0,0.2-0.1,0.2-0.1c0.4-0.9,0.6-1.1,0.9-1.5c0,0,0.5-0.5,0.5-0.6c0.1,0,0.5-0.2,0.5-0.2l0.5-0.1c0.1,0,0.2-0.1,0.2-0.2
		c0,0,0,0,0,0C1854.4-2355.3,1854.3-2355.4,1854.2-2355.4"/>
	<path id="path90550" class="st0" d="M1868.9-2375.5c0.1,0,0.1-0.1,0.1-0.2v0c0-0.1-0.1-0.2-0.1-0.2c-0.9-0.4-2.4-1-2.5-2.2
		c0-0.1-0.1-0.2-0.2-0.2c-0.1,0-0.2,0-0.3,0.1l-0.3,0.5c-0.6,0.9-1,1.6-2.2,1.9c-0.1,0-0.2,0.1-0.2,0.2c0,0.1,0.1,0.2,0.2,0.2
		c0.5,0.1,1,1.2,1,1.8v16.5c0,0.6-0.4,1.3-1,1.7c-0.1,0-0.1,0.1-0.1,0.2c0,0.1,0,0.2,0.1,0.2c0.4,0.4,0.8,0.6,1.1,0.7
		c0.6,0.3,1.1,0.6,1.5,1.8c0,0.1,0.1,0.2,0.2,0.2c0.1,0,0.2-0.1,0.2-0.1c0.6-1.5,1-1.8,2.5-2.4c0.1,0,0.1-0.1,0.1-0.2c0,0,0,0,0,0
		c0-0.1-0.1-0.2-0.1-0.2l-0.4-0.4c0,0-0.2-0.2-0.3-0.3c0-0.1-0.2-0.4-0.2-0.4c-0.1-0.2-0.2-0.4-0.2-0.7v-16.5
		C1867.8-2374.4,1868.2-2375.1,1868.9-2375.5"/>
	<path id="path90554" class="st0" d="M1880.4-2352.7L1880.4-2352.7C1880.4-2352.7,1880.4-2352.7,1880.4-2352.7
		C1880.4-2352.7,1880.4-2352.7,1880.4-2352.7 M1883.7-2367.1c-1.1,0.7-4.1-1-5.2-1.9c-0.1-0.1-0.2-0.1-0.3,0c0,0-2.9,1.6-3.3,1.9
		c-0.1-0.1-0.1-0.3-0.1-0.3c-0.3-0.7-0.6-1.5-1.5-1.6c-0.1,0-0.1,0-0.2,0l-2.7,1.9c-0.1,0-0.1,0.1-0.1,0.2c0,0,0,0,0,0
		c0,0.1,0.1,0.2,0.2,0.2c0.7,0.3,1.2,1.4,1.4,3.6c0,0,0,5.7,0,6.9c0,0,0,0,0,0c-0.3-0.1-0.6,0.1-1,0.4l-0.5,0.3
		c-0.1,0.1-0.1,0.2-0.1,0.3c0,0.1,0.1,0.2,0.2,0.2c1,0.1,2.2,1.3,2.4,2.3c0,0.1,0.1,0.2,0.2,0.2s0.2-0.1,0.2-0.2
		c0.2-1.1,1.1-1.6,2-2.1l0.6-0.3c0.1,0,0.1-0.1,0.1-0.2v0c0-0.1-0.1-0.2-0.2-0.2c-0.6-0.2-0.9-1.1-0.9-1.6c0,0-0.1-7.7-0.1-8
		c0.2-0.1,1.1-0.6,1.3-0.7c0,0,0,0,0,0c0.7,0.5,1.5,1,2.3,1.1v7.6c0,0.6-0.3,1.3-1,1.7c-0.1,0-0.1,0.1-0.1,0.2v0
		c0,0.1,0,0.2,0.1,0.2l0.6,0.4c1,0.5,1,0.5,1.3,1l0.8,1.2c0.1,0.1,0.2,0.1,0.3,0.1c0.1,0,0.1-0.1,0.1-0.2c0,0,0,0,0-0.1c0,0,0,0,0,0
		c0-0.3,1-1.6,1.4-1.9l0.5-0.2l0.5-0.2c0.1,0,0.1-0.1,0.2-0.2v0c0-0.1-0.1-0.2-0.2-0.2c-0.6-0.3-1.1-1.1-1.1-1.8v-8
		c0.5-0.3,1.6-1,1.9-1.6c0,0,0-0.1,0-0.1c0-0.1,0-0.1-0.1-0.2C1884-2367.1,1883.8-2367.1,1883.7-2367.1"/>
	<path id="path90566" class="st0" d="M1891.6-2371.4h-1.8v-6.7c0-0.1-0.1-0.2-0.1-0.2c-0.1,0-0.2,0-0.3,0l-3,2.5
		c-0.1,0-0.1,0.1-0.1,0.2v4.4h-1.8c-0.1,0-0.2,0.1-0.2,0.2v1.1c0,0.1,0.1,0.2,0.2,0.2h1.8v12.5c0,0.7-0.4,1.3-1,1.8
		c-0.1,0-0.1,0.1-0.1,0.2c0,0,0,0,0,0c0,0.1,0.1,0.2,0.2,0.2c0.9,0.3,1.2,0.4,1.8,1.1c0.1,0.4,0.5,1,0.6,1.3c0,0.1,0.1,0.1,0.2,0.1
		c0.1,0,0.2,0,0.2-0.1l0.6-0.9c0.2-0.5,0.5-0.9,1-1.2c0,0,0.4-0.2,0.4-0.2l0.6-0.2c0.1,0,0.1-0.1,0.1-0.2c0,0,0,0,0,0
		c0-0.1-0.1-0.2-0.2-0.2c-0.5-0.1-1-1.1-1-1.6v-12.6h1.8c0.1,0,0.2-0.1,0.2-0.2v-1.1C1891.8-2371.3,1891.7-2371.4,1891.6-2371.4"/>
	<path id="path90570" class="st0" d="M1922.3-2378.3C1922.3-2378.3,1922.3-2378.3,1922.3-2378.3
		C1922.3-2378.3,1922.3-2378.3,1922.3-2378.3 M1933.1-2366.5c0-0.1-0.1-0.1-0.2-0.2l-0.2-0.1c-1.9-0.4-2.6-0.6-3.9-2.2
		c-0.1-0.1-0.2-0.1-0.2-0.1c-0.1,0-0.2,0.1-0.2,0.2c-0.2,1.1-3.1,2.2-4.6,2.5v-7.4c0-0.9,0.2-1,0.5-1.3l0.6-0.6c0,0,0.1-0.1,0.1-0.2
		c0,0,0,0,0,0c0-0.1,0-0.1-0.1-0.2l-0.6-0.3l-0.5-0.2c-0.4-0.3-0.6-0.7-0.9-1.1c-0.2-0.3-0.3-0.7-0.6-0.9c-0.1-0.1-0.2-0.1-0.3,0
		c-0.1,0-0.1,0.1-0.1,0.2c0,0,0,0,0,0.1c0,0,0,0.1,0,0.1c0,0.7-1.3,1.8-2.5,2.2c-0.1,0-0.2,0.1-0.2,0.2v0c0,0.1,0.1,0.2,0.2,0.2
		c0,0,0.1,0,0.1,0c0.1,0.1,0.1,0.2,0.1,0.2c0.4,0.5,0.7,0.9,0.7,1.6v16.5c0,0.6-0.3,1.4-1,1.7c-0.1,0-0.2,0.1-0.2,0.2c0,0,0,0,0,0
		c0,0.1,0,0.1,0.1,0.2l1,0.7c0.6,0.4,1.2,0.7,1.6,1.8c0,0.1,0.1,0.2,0.2,0.2c0.1,0,0.2-0.1,0.2-0.2c0.2-1.1,1.1-1.6,1.9-2l0.6-0.3
		c0.1,0,0.1-0.1,0.1-0.2c0,0,0,0,0,0c0-0.1,0-0.1-0.1-0.2l-0.4-0.4c-0.4-0.4-0.7-0.7-0.7-1.4v-7.2c1.1-0.1,1.6-0.3,1.8-0.4
		c0.3-0.1,0.4-0.1,1.9,0.3v7.3c0,0.7-0.5,1.5-1.1,1.8c-0.1,0-0.1,0.1-0.1,0.2c0,0,0,0,0,0c0,0.1,0.1,0.2,0.2,0.2
		c1.1,0.2,2.2,1.2,2.4,2.3c0,0.1,0.1,0.2,0.2,0.2s0.2-0.1,0.2-0.2c0.2-1.2,1.3-1.8,2-2.1l0.6-0.4c0.1,0,0.1-0.1,0.1-0.2
		c0,0,0,0,0-0.1c0-0.1-0.1-0.1-0.2-0.2c-0.5-0.1-0.9-1.1-0.9-1.6v-7.4c0.1-0.1,0.3-0.2,0.3-0.2c0.7-0.4,1.3-0.7,1.9-1.4
		C1933.1-2366.3,1933.1-2366.4,1933.1-2366.5C1933.1-2366.4,1933.1-2366.5,1933.1-2366.5"/>
	<path id="path90574" class="st0" d="M1900.6-2364v8.4c-0.5-0.3-1.7-0.9-1.7-0.9s-1.6-0.9-2-1.1v-8.1c0.6,0.5,1.3,0.8,1.8,1.1
		C1899.3-2364.4,1900-2364.2,1900.6-2364 M1904.7-2355.6c-0.2-0.2-0.6-0.6-0.6-1.2l0-1.2c-0.1-1.9-0.3-7.8,0.7-8
		c0.1,0,0.2-0.2,0.2-0.3c0-0.1-0.2-0.2-0.3-0.2c-1.2,0.2-4.4-1.5-5.4-2.5c-0.1-0.1-0.2-0.1-0.3,0l-0.3,0.2c-2.1,1-4,1.5-6.3,1.7
		c-0.1,0-0.2,0.1-0.2,0.2v1.1c0,0.1,0.1,0.2,0.2,0.2h1v8c0,0.1,0,0.1,0,0.2c0,0.6,0,1.6-0.6,1.8c-0.1,0-0.2,0.1-0.2,0.2c0,0,0,0,0,0
		c0,0.1,0.1,0.2,0.1,0.2c0.4,0.2,0.8,0.3,1.3,0.3l0.8,0.2c1.4,0.4,2.9,1.1,3.9,1.9c0,0,0.3,0.2,0.3,0.2c0.1,0.1,0.2,0,0.3-0.1
		c0.7-1,4.1-2.3,5.4-2.3c0.1,0,0.2,0,0.2-0.1c0-0.1,0.1-0.1,0-0.2L1904.7-2355.6z"/>
	<path id="path90578" class="st0" d="M1917.7-2360.5c-0.1,0-0.1,0-0.2,0C1917.6-2360.5,1917.6-2360.5,1917.7-2360.5 M1917.5-2360.2
		l0.3-0.4c0.1-0.1,0-0.1,0-0.2c0-0.1-0.2-0.1-0.3-0.1c-0.3,0-2.2-1.4-2.7-1.8c-0.1-0.1-0.2-0.1-0.3-0.1c0,0-3.5,1.3-4,1.5v-3.6
		c2.4,1,4,0.8,5.9-0.9l0.1-0.1c0.3-0.2,0.7-0.6,0.7-0.9c0-0.1,0-0.1-0.1-0.2c0,0-0.1-0.1-0.2-0.1c-2.5,0.2-3.7,0.1-5.4-1.8
		c0-0.1-0.1-0.1-0.2-0.1c-0.1,0-0.1,0-0.2,0.1c-1.1,1.2-3,2.5-4.5,2.5h-0.1c-0.1,0-0.2,0.1-0.2,0.2v0c0,0.1,0.1,0.2,0.2,0.2
		c0,0,0,0,0.1,0c0.3,0.2,0.4,0.4,0.4,0.8l0.1,0.9c0,0.3,0.1,0.7,0.1,1c0,0.7-0.1,1.4-0.7,1.7c-0.1,0-0.1,0.1-0.1,0.2c0,0,0,0,0,0.1
		c0,0.1,0.1,0.2,0.2,0.2h0.1c0.1,0.1,0.3,0.2,0.3,0.2c1,0.7,1.1,0.8,1.9,2c0.1,0.1,0.2,0.1,0.3,0.1c0,0,3.9-1.5,4.5-1.7v4
		c-1.2-0.8-2.9-1.1-4.5-0.9c-1.6,0.2-2.9,1-3.5,2c0,0.1,0,0.2,0,0.3c0,0.1,0.1,0.1,0.2,0.1c2-0.2,4,1.2,5.3,2.4
		c0.1,0.1,0.2,0.1,0.3,0c1.7-1.7,3.7-2.5,5.9-2.4c0.1,0,0.2,0,0.2-0.1c0-0.1,0-0.2,0-0.3l-0.3-0.3c-0.2-0.2-0.2-0.2-0.2-0.7v-3.2
		C1917.2-2360,1917.3-2360.1,1917.5-2360.2"/>
	<path id="path90582" class="st1" d="M1929.9-2377h0.3c0.2,0,0.4,0,0.4,0.3c0,0.2-0.2,0.3-0.4,0.3h-0.4V-2377z M1929.5-2375.3h0.4
		v-0.9h0.3l0.5,0.9h0.4l-0.5-0.9c0.3,0,0.5-0.2,0.5-0.5c0-0.4-0.3-0.6-0.8-0.6h-0.8V-2375.3z M1928.9-2376.3c0-0.8,0.6-1.4,1.4-1.4
		c0.8,0,1.4,0.6,1.4,1.4c0,0.8-0.6,1.4-1.4,1.4C1929.5-2374.9,1928.9-2375.5,1928.9-2376.3 M1928.4-2376.3c0,1.1,0.9,1.8,1.9,1.8
		c1,0,1.9-0.7,1.9-1.8c0-1.1-0.9-1.8-1.9-1.8C1929.3-2378.2,1928.4-2377.4,1928.4-2376.3"/>
</g>
</svg>
