<?xml version="1.0" encoding="utf-8"?>
<!-- Generator: Adobe Illustrator 26.0.3, SVG Export Plug-In . SVG Version: 6.00 Build 0)  -->
<svg version="1.1" id="Layer_1" xmlns="http://www.w3.org/2000/svg" xmlns:xlink="http://www.w3.org/1999/xlink" x="0px" y="0px"
	 viewBox="0 0 523.7 530.2" style="enable-background:new 0 0 523.7 530.2;" xml:space="preserve">
<style type="text/css">
	.st0{fill-rule:evenodd;clip-rule:evenodd;fill:#604E44;}
</style>
<g id="Layer_2_00000181780251933451369630000002256519536681048727_">
	<g id="Layer_1-2">
		<polygon class="st0" points="153.9,338.1 330.6,338.2 330.6,448.3 384.7,448.3 384.7,292.8 214.9,292.9 358.9,93.8 291.6,93.8 
			141.4,302.5 		"/>
		<path class="st0" d="M341.4,519c-18.1,3.4-36.6,5-55,4.8c-136.6,0-247.2-110.7-247.2-247.3S149.8,29.3,286.4,29.3
			c112.4,0,207.2,74.9,237.3,177.6C508.1,137.6,465,74.7,399.2,36.2c-126.1-73.8-289.1-31.1-363,94.9S5.1,420.3,131.1,494.1
			C197,532.6,273.3,539.2,341.4,519"/>
	</g>
</g>
</svg>
