<?xml version="1.0" encoding="utf-8"?>
<!-- Generator: Adobe Illustrator 27.0.1, SVG Export Plug-In . SVG Version: 6.00 Build 0)  -->
<svg version="1.1" id="Layer_1" xmlns="http://www.w3.org/2000/svg" xmlns:xlink="http://www.w3.org/1999/xlink" x="0px" y="0px"
	 viewBox="0 0 535.4 150.6" style="enable-background:new 0 0 535.4 150.6;" xml:space="preserve">
<style type="text/css">
	.st0{fill:#604E44;}
</style>
<polygon class="st0" points="315.2,5.8 275.7,5.8 228,104.9 180.5,5.8 138,5.8 206,145.6 248.6,145.6 315.2,9 316.7,5.8 "/>
<path class="st0" d="M497.3,95.2C497.3,95.1,497.3,95.1,497.3,95.2L497.3,95.2c19.1-6.8,30.8-22,30.8-42.6c0-30-22.4-46.7-56.5-46.7
	h-90.3v139.8h38.2V99.2h38l0,0h7.4C473.6,99.1,488.2,98.3,497.3,95.2z M419.4,69.1V37.7h50.2c13.4,0,20.8,5.8,20.8,15.8
	c0,9.3-7.4,15.6-20.8,15.6H419.4z"/>
<polygon class="st0" points="502.9,103.5 460.2,103.5 487.4,145.6 531.2,145.6 "/>
<g>
	<polygon class="st0" points="333.6,5.8 325.2,23.1 325.2,145.6 363.3,145.6 363.3,5.8 	"/>
</g>
<polygon class="st0" points="114.9,5.8 72.3,5.8 4.2,145.6 45.3,145.6 92.9,46.5 140.4,145.6 182.8,145.6 "/>
</svg>
